<svg width="286.65000000000003" height="66.76102787269456" viewBox="0 0 370.1012658227848 86.19689838937543" xmlns="http://www.w3.org/2000/svg"><defs id="SvgjsDefs6032"></defs><g id="SvgjsG6033" featurekey="symbolFeature-0" transform="matrix(1.4439791692380821,0,0,1.4439791692380821,-13.31926382400201,-26.924435457413036)" fill="#33704e"><line xmlns="http://www.w3.org/2000/svg" fill="none" stroke="#33704e" stroke-width="3" stroke-linecap="round" stroke-linejoin="round" stroke-miterlimit="10" x1="10.467" y1="77.135" x2="79.146" y2="77.135"></line><g xmlns="http://www.w3.org/2000/svg"><path d="M79.112,30.03l-6.774-10.687c-0.274-0.434-0.753-0.697-1.267-0.697H19.33c-0.469,0-0.91,0.219-1.194,0.592l-8.191,10.77   c-0.431,0.264-0.721,0.734-0.721,1.276v7.198c0,3.002,1.354,5.69,3.479,7.498v30.86c0,0.829,0.672,1.5,1.5,1.5s1.5-0.671,1.5-1.5   V47.724c1.053,0.385,2.185,0.607,3.37,0.607c3.598,0,6.743-1.946,8.462-4.835c1.66,2.79,4.652,4.689,8.097,4.816v28.135   c0,0.829,0.672,1.5,1.5,1.5s1.5-0.671,1.5-1.5V47.961c2.437-0.679,4.491-2.27,5.777-4.385c1.729,2.844,4.848,4.754,8.412,4.754   c3.666,0,6.865-2.017,8.561-4.996c1.696,2.979,4.895,4.996,8.561,4.996c1.185,0,2.317-0.221,3.37-0.607V76.84   c0,0.829,0.672,1.5,1.5,1.5s1.5-0.671,1.5-1.5V45.979c2.125-1.808,3.479-4.496,3.479-7.498v-7.198   C79.791,30.759,79.52,30.298,79.112,30.03z M69.942,45.33c-3.777,0-6.85-3.072-6.85-6.849c0-0.829-0.672-1.5-1.5-1.5   c-0.072,0-0.141,0.011-0.211,0.021c-0.07-0.01-0.139-0.021-0.211-0.021c-0.828,0-1.5,0.671-1.5,1.5c0,3.776-3.072,6.849-6.85,6.849   c-3.776,0-6.849-3.072-6.849-6.849c0-0.829-0.672-1.5-1.5-1.5c-0.022,0-0.042,0.005-0.063,0.006   c-0.022-0.001-0.042-0.006-0.063-0.006c-0.828,0-1.5,0.671-1.5,1.5c0,3.776-3.072,6.849-6.85,6.849   c-3.776,0-6.849-3.072-6.849-6.849c0-0.829-0.672-1.5-1.5-1.5c-0.039,0-0.075,0.008-0.113,0.011   c-0.038-0.003-0.074-0.011-0.113-0.011c-0.828,0-1.5,0.671-1.5,1.5c0,3.776-3.072,6.849-6.85,6.849   c-3.776,0-6.849-3.072-6.849-6.849v-6.513l7.851-10.322h50.172l6.493,10.244c0.015,0.023,0.036,0.04,0.052,0.062v6.529   C76.791,42.258,73.719,45.33,69.942,45.33z"></path><path d="M52.074,51.718c-0.586-0.586-1.535-0.586-2.121,0c-0.586,0.585-0.586,1.535,0,2.121l11.174,11.174   c0.293,0.293,0.677,0.439,1.061,0.439s0.768-0.146,1.061-0.439c0.586-0.585,0.586-1.535,0-2.121L52.074,51.718z"></path><path d="M50.322,57.537c-0.586-0.586-1.535-0.586-2.121,0c-0.586,0.585-0.586,1.536,0,2.121l6.229,6.229   c0.293,0.293,0.677,0.439,1.061,0.439s0.768-0.146,1.061-0.439c0.586-0.585,0.586-1.536,0-2.121L50.322,57.537z"></path><path d="M26.03,53.089c-1.645,0-2.979,1.334-2.979,2.979c0,1.391,0.958,2.55,2.247,2.878v5.206h1.374v-5.178   c1.336-0.294,2.338-1.481,2.338-2.906C29.009,54.423,27.675,53.089,26.03,53.089z"></path><path d="M70.852,30.217H17.149c-0.828,0-1.5,0.671-1.5,1.5c0,0.829,0.672,1.5,1.5,1.5h53.702c0.828,0,1.5-0.671,1.5-1.5   C72.352,30.888,71.68,30.217,70.852,30.217z"></path></g></g><g id="SvgjsG6034" featurekey="textGroupContainer" transform="matrix(1,0,0,1,122,31)" fill="#3b3c3e"><rect xmlns="http://www.w3.org/2000/svg" y="0" x="0" height="1" width="1" opacity="0"></rect><rect xmlns="http://www.w3.org/2000/svg" y="51.59090909090909" x="0" width="248" height="2"></rect><rect xmlns="http://www.w3.org/2000/svg" y="-30" x="0" width="248" height="2"></rect></g><g id="SvgjsG6035" featurekey="nameFeature-0" transform="matrix(1.3297312862470474,0,0,1.3297312862470474,120.08518623765113,-1.6270441487175216)" fill="#35ab6d"><path d="M30.52 24.44 l0 2.8 c0 7.92 -5.76 13.32 -14.16 13.32 c-8.6 0 -14.92 -6.32 -14.92 -14.6 c0 -8.24 6.36 -14.52 14.68 -14.52 c6.92 0 11.68 3.88 13.44 8.56 l-5.08 1.44 c-1.4 -2.88 -4 -4.84 -8.32 -4.84 c-5.48 0 -9.16 4.28 -9.16 9.32 s3.48 9.52 9.76 9.52 c4.72 0 7.6 -2.8 8.08 -6.28 l-8.6 0 l0 -4.72 l14.28 0 z M49.69 19.76 l5.28 0 l0 20.24 l-5.28 0 l0 -2.56 c-1.36 1.8 -3.56 3.12 -6.48 3.12 c-5.32 0 -8 -3.56 -8 -9 l0 -11.8 l5.28 0 l0 10.8 c0 3.08 1.4 5.08 4.32 5.08 c3 0 4.88 -2.32 4.88 -5.92 l0 -9.96 z M60.94 16.6 l3.08 -5.6 l5.8 0 l-4.32 5.6 l-4.56 0 z M61.02 40 l0 -20.24 l5.32 0 l0 20.24 l-5.32 0 z M81.15 40.56 c-5.6 0 -10 -4.56 -10 -10.68 c0 -6.16 4.4 -10.68 10 -10.68 c2.84 0 5.08 1.16 6.52 3 l0 -2.44 l5.32 0 l0 20.24 l-5.32 0 l0 -2.48 c-1.44 1.84 -3.68 3.04 -6.52 3.04 z M82.07 35.84 c3.2 0 5.76 -2.48 5.76 -6 c0 -3.48 -2.56 -5.92 -5.76 -5.92 c-3.32 0 -5.68 2.44 -5.68 5.92 c0 3.52 2.36 6 5.68 6 z M105.4 35.12 l15.08 0 l0 4.88 l-22.68 0 l0 -3.68 l14.72 -19.44 l-14.44 0 l0 -4.88 l22 0 l0 3.72 z M148.81 12 l5.24 0 l0 28 l-5.48 0 l0 -18.44 l-8.92 12.36 l-8.92 -12.36 l0 18.44 l-5.48 0 l0 -28 l5.24 0 l9.16 13.24 z M188.02 24.44 l0 2.8 c0 7.92 -5.76 13.32 -14.16 13.32 c-8.6 0 -14.92 -6.32 -14.92 -14.6 c0 -8.24 6.36 -14.52 14.68 -14.52 c6.92 0 11.68 3.88 13.44 8.56 l-5.08 1.44 c-1.4 -2.88 -4 -4.84 -8.32 -4.84 c-5.48 0 -9.16 4.28 -9.16 9.32 s3.48 9.52 9.76 9.52 c4.72 0 7.6 -2.8 8.08 -6.28 l-8.6 0 l0 -4.72 l14.28 0 z"></path></g><g id="SvgjsG6036" featurekey="sloganFeature-0" transform="matrix(0.5748074284877245,0,0,0.5748074284877245,128.82755766181788,61.0688118945866)" fill="#2a5434"><path d="M12.44 6 l0 2.48 l-4.7 0 l0 11.52 l-2.74 0 l0 -11.52 l-4.7 0 l0 -2.48 l12.14 0 z M27.955 6 l2.76 0 l0 8.26 c0 3.56 -2.16 6.02 -6.06 6.02 c-3.92 0 -6.06 -2.46 -6.06 -6.02 l0 -8.26 l2.78 0 l0 8.22 c0 2.06 1.1 3.54 3.28 3.54 c2.2 0 3.3 -1.48 3.3 -3.54 l0 -8.22 z M61.425 12.22 l0 1.4 c0 3.96 -2.88 6.66 -7.08 6.66 c-4.3 0 -7.46 -3.16 -7.46 -7.3 c0 -4.12 3.18 -7.26 7.34 -7.26 c3.46 0 5.84 1.94 6.72 4.28 l-2.54 0.72 c-0.7 -1.44 -2 -2.42 -4.16 -2.42 c-2.74 0 -4.58 2.14 -4.58 4.66 s1.74 4.76 4.88 4.76 c2.36 0 3.8 -1.4 4.04 -3.14 l-4.3 0 l0 -2.36 l7.14 0 z M77.36 6 l2.76 0 l0 8.26 c0 3.56 -2.16 6.02 -6.06 6.02 c-3.92 0 -6.06 -2.46 -6.06 -6.02 l0 -8.26 l2.78 0 l0 8.22 c0 2.06 1.1 3.54 3.28 3.54 c2.2 0 3.3 -1.48 3.3 -3.54 l0 -8.22 z M87.315 4.42 l1.54 -2.8 l2.9 0 l-2.16 2.8 l-2.28 0 z M87.275 20 l0 -14 l2.78 0 l0 14 l-2.78 0 z M107.55 20 l-1.14 -3.04 l-6.3 0 l-1.16 3.04 l-2.84 0 l5.36 -14 l3.56 0 l5.38 14 l-2.86 0 z M101.01 14.54 l4.48 0 l-2.24 -5.92 z M128.78 17.48 l6.98 0 l0 2.52 l-9.72 0 l0 -14 l2.74 0 l0 11.48 z M148.975 20.28 c-4.24 0 -7.36 -3.16 -7.36 -7.3 c0 -4.12 3.12 -7.26 7.36 -7.26 c4.22 0 7.34 3.14 7.34 7.26 c0 4.14 -3.12 7.3 -7.34 7.3 z M148.975 17.74 c2.76 0 4.58 -2.08 4.58 -4.76 c0 -2.62 -1.82 -4.72 -4.58 -4.72 c-2.78 0 -4.58 2.1 -4.58 4.72 c0 2.68 1.8 4.76 4.58 4.76 z M169.79 20.28 c-4.22 0 -7.36 -3.16 -7.36 -7.3 c0 -4.12 3.14 -7.26 7.3 -7.26 c3.78 0 6.14 2.32 6.78 4.54 l-2.68 0.66 c-0.46 -1.36 -1.96 -2.62 -4.08 -2.62 c-2.76 0 -4.52 2.14 -4.52 4.66 s1.76 4.74 4.52 4.74 c2.12 0 3.62 -1.22 4.08 -2.6 l2.66 0.68 c-0.64 2.24 -3 4.5 -6.7 4.5 z M193.405 20 l-1.14 -3.04 l-6.3 0 l-1.16 3.04 l-2.84 0 l5.36 -14 l3.56 0 l5.38 14 l-2.86 0 z M186.865 14.54 l4.48 0 l-2.24 -5.92 z M205.04 17.48 l6.98 0 l0 2.52 l-9.72 0 l0 -14 l2.74 0 l0 11.48 z M234.13 6 c4.08 0 6.7 2.88 6.7 7 c0 4.04 -2.58 7 -6.7 7 l-6.08 0 l0 -14 l6.08 0 z M234.07 17.52 c2.4 0 4 -1.88 4 -4.58 c0 -2.66 -1.6 -4.48 -4 -4.48 l-3.3 0 l0 9.06 l3.3 0 z M257.845 8.48 l-7.64 0 l0 3.2 l6.62 0 l0 2.4 l-6.62 0 l0 3.44 l7.62 0 l0 2.48 l-10.3 0 l0 -14 l10.32 0 l0 2.48 z M283.615 6 l2.74 0 l0 14 l-2.26 0 l-7.04 -9.1 l0 9.1 l-2.74 0 l0 -14 l2.26 0 l7.04 9.08 l0 -9.08 z M303.95 8.48 l-7.64 0 l0 3.2 l6.62 0 l0 2.4 l-6.62 0 l0 3.44 l7.62 0 l0 2.48 l-10.3 0 l0 -14 l10.32 0 l0 2.48 z M324.785 12.22 l0 1.4 c0 3.96 -2.88 6.66 -7.08 6.66 c-4.3 0 -7.46 -3.16 -7.46 -7.3 c0 -4.12 3.18 -7.26 7.34 -7.26 c3.46 0 5.84 1.94 6.72 4.28 l-2.54 0.72 c-0.7 -1.44 -2 -2.42 -4.16 -2.42 c-2.74 0 -4.58 2.14 -4.58 4.66 s1.74 4.76 4.88 4.76 c2.36 0 3.8 -1.4 4.04 -3.14 l-4.3 0 l0 -2.36 l7.14 0 z M338.26 20.28 c-4.24 0 -7.36 -3.16 -7.36 -7.3 c0 -4.12 3.12 -7.26 7.36 -7.26 c4.22 0 7.34 3.14 7.34 7.26 c0 4.14 -3.12 7.3 -7.34 7.3 z M338.26 17.74 c2.76 0 4.58 -2.08 4.58 -4.76 c0 -2.62 -1.82 -4.72 -4.58 -4.72 c-2.78 0 -4.58 2.1 -4.58 4.72 c0 2.68 1.8 4.76 4.58 4.76 z M359.075 20.28 c-4.22 0 -7.36 -3.16 -7.36 -7.3 c0 -4.12 3.14 -7.26 7.3 -7.26 c3.78 0 6.14 2.32 6.78 4.54 l-2.68 0.66 c-0.46 -1.36 -1.96 -2.62 -4.08 -2.62 c-2.76 0 -4.52 2.14 -4.52 4.66 s1.76 4.74 4.52 4.74 c2.12 0 3.62 -1.22 4.08 -2.6 l2.66 0.68 c-0.64 2.24 -3 4.5 -6.7 4.5 z M372.47 20 l0 -14 l2.78 0 l0 14 l-2.78 0 z M389.305 20.28 c-4.24 0 -7.36 -3.16 -7.36 -7.3 c0 -4.12 3.12 -7.26 7.36 -7.26 c4.22 0 7.34 3.14 7.34 7.26 c0 4.14 -3.12 7.3 -7.34 7.3 z M389.305 17.74 c2.76 0 4.58 -2.08 4.58 -4.76 c0 -2.62 -1.82 -4.72 -4.58 -4.72 c-2.78 0 -4.58 2.1 -4.58 4.72 c0 2.68 1.8 4.76 4.58 4.76 z M409.06 20.28 c-3.42 0 -5.68 -2.06 -6.46 -4.24 l2.62 -0.8 c0.56 1.46 1.98 2.62 4 2.62 c1.64 0 2.66 -0.84 2.66 -1.76 c0 -0.74 -0.5 -1.24 -1.84 -1.68 l-3.58 -1.12 c-1.84 -0.58 -3.18 -1.76 -3.16 -3.56 c-0.02 -2.18 2.1 -4.02 5.02 -4.02 c3.02 0 5.26 1.66 6.02 3.6 l-2.54 0.74 c-0.58 -1.14 -1.88 -1.92 -3.46 -1.92 c-1.38 0 -2.26 0.7 -2.26 1.52 c0 0.62 0.42 1.04 1.34 1.32 l3.48 1.12 c2.14 0.66 3.76 1.56 3.76 3.84 c0 2.4 -2.24 4.34 -5.6 4.34 z"></path></g></svg>
