<svg xmlns="http://www.w3.org/2000/svg" viewBox="0 0 800 380" fill="none" role="img" aria-label="Vende en Marketplace">
  <defs>
    <linearGradient id="bg" x1="0" y1="0" x2="1" y2="1">
      <stop offset="0" stop-color="#ecfdf5"/>
      <stop offset="1" stop-color="#d1fae5"/>
    </linearGradient>
  </defs>
  <rect width="800" height="380" rx="28" fill="url(#bg)"/>
  <circle cx="720" cy="40" r="140" fill="#10b981" opacity="0.10"/>
  <circle cx="90" cy="360" r="110" fill="#006c49" opacity="0.07"/>
  <text x="64" y="96" font-family="system-ui,-apple-system,Segoe UI,Roboto,sans-serif" font-size="26" font-weight="800" fill="#006c49" opacity="0.55">Paso 6</text>
  <rect x="64" y="126" width="128" height="128" rx="30" fill="#ffffff"/>
  <g transform="translate(94,156) scale(2.833)" stroke="#006c49" stroke-width="2" stroke-linecap="round" stroke-linejoin="round" fill="none"><path d="M6 2 3 6v14a2 2 0 0 0 2 2h14a2 2 0 0 0 2-2V6l-3-4Z"/><path d="M3 6h18"/><path d="M16 10a4 4 0 0 1-8 0"/></g>
  <text x="228" y="196" font-family="system-ui,-apple-system,Segoe UI,Roboto,sans-serif" font-size="44" font-weight="800" fill="#0f172a">Vende en Marketplace</text>
  <text x="230" y="238" font-family="system-ui,-apple-system,Segoe UI,Roboto,sans-serif" font-size="21" font-weight="500" fill="#475569">Publica artículos sin tener negocio</text>
  <text x="640" y="352" font-family="system-ui,-apple-system,Segoe UI,Roboto,sans-serif" font-size="18" font-weight="700" fill="#006c49" opacity="0.5">Guía ZMG</text>
</svg>