<svg xmlns="http://www.w3.org/2000/svg" viewBox="0 0 820 340" fill="none" role="img" aria-label="Elige “Negocio”">
<defs>
<linearGradient id="bg" x1="0" y1="0" x2="1" y2="1"><stop offset="0" stop-color="#f4fdf8"/><stop offset="1" stop-color="#c9efdd"/></linearGradient>
<linearGradient id="tile" x1="0" y1="0" x2="0" y2="1"><stop offset="0" stop-color="#ffffff"/><stop offset="1" stop-color="#effaf3"/></linearGradient>
<linearGradient id="ico" x1="0" y1="0" x2="1" y2="1"><stop offset="0" stop-color="#12a66b"/><stop offset="1" stop-color="#006c49"/></linearGradient>
<linearGradient id="accent" x1="0" y1="0" x2="1" y2="0"><stop offset="0" stop-color="#12a66b"/><stop offset="1" stop-color="#5eddad"/></linearGradient>
<filter id="sh" x="-40%" y="-40%" width="180%" height="180%"><feDropShadow dx="0" dy="14" stdDeviation="20" flood-color="#065f46" flood-opacity="0.16"/></filter>
<radialGradient id="glow" cx="0.82" cy="0.1" r="0.7"><stop offset="0" stop-color="#5eddad" stop-opacity="0.45"/><stop offset="1" stop-color="#5eddad" stop-opacity="0"/></radialGradient>
</defs>
<rect width="820" height="340" rx="26" fill="url(#bg)"/>
<rect width="820" height="340" rx="26" fill="url(#glow)"/>
<circle cx="748" cy="44" r="150" fill="#12a66b" opacity="0.10"/>
<circle cx="78" cy="322" r="120" fill="#006c49" opacity="0.06"/>
<g fill="#12a66b" opacity="0.14"><circle cx="632" cy="232" r="3.4"/><circle cx="658" cy="232" r="3.4"/><circle cx="684" cy="232" r="3.4"/><circle cx="710" cy="232" r="3.4"/><circle cx="632" cy="258" r="3.4"/><circle cx="658" cy="258" r="3.4"/><circle cx="684" cy="258" r="3.4"/><circle cx="710" cy="258" r="3.4"/><circle cx="632" cy="284" r="3.4"/><circle cx="658" cy="284" r="3.4"/><circle cx="684" cy="284" r="3.4"/><circle cx="710" cy="284" r="3.4"/></g>
<rect x="60" y="100" width="140" height="140" rx="36" fill="url(#tile)" filter="url(#sh)"/>
<rect x="60" y="100" width="140" height="140" rx="36" fill="none" stroke="#12a66b" stroke-opacity="0.12" stroke-width="1.5"/>
<g transform="translate(94,134) scale(3)" stroke="url(#ico)" stroke-width="2" stroke-linecap="round" stroke-linejoin="round" fill="none"><path d="m3 7 2-4h14l2 4"/><path d="M4 7v13a1 1 0 0 0 1 1h14a1 1 0 0 0 1-1V7"/><path d="M3 7h18"/><path d="M9 21v-6h6v6"/></g>
<rect x="246" y="104" width="128" height="40" rx="20" fill="#006c49"/>
<text x="310" y="130" font-family="ui-sans-serif,system-ui,-apple-system,Segoe UI,Roboto,Helvetica,Arial,sans-serif" font-size="19" font-weight="700" fill="#ffffff" text-anchor="middle" letter-spacing="0.5">PASO 2</text>
<text x="246" y="196" font-family="ui-sans-serif,system-ui,-apple-system,Segoe UI,Roboto,Helvetica,Arial,sans-serif" font-size="44" font-weight="800" fill="#0b3b2b">Elige “Negocio”</text>
<rect x="248" y="214" width="76" height="7" rx="3.5" fill="url(#accent)"/>
<text x="246" y="256" font-family="ui-sans-serif,system-ui,-apple-system,Segoe UI,Roboto,Helvetica,Arial,sans-serif" font-size="21" font-weight="500" fill="#3f6b58">Para locales y establecimientos fijos</text>
<text x="758" y="316" font-family="ui-sans-serif,system-ui,-apple-system,Segoe UI,Roboto,Helvetica,Arial,sans-serif" font-size="19" font-weight="800" fill="#006c49" opacity="0.45" text-anchor="end">Guía ZMG</text>
</svg>